<svg aria-hidden="true" style="position: absolute; width: 0; height: 0; overflow: hidden;" version="1.1" xmlns="http://www.w3.org/2000/svg" xmlns:xlink="http://www.w3.org/1999/xlink">
<defs>
<symbol id="icon-computer-desktop" viewBox="0 0 20 20">
<path d="M7 17h-5c-1.105 0-2-0.895-2-2v0-13c0-1.1 0.9-2 2-2h16c1.105 0 2 0.895 2 2v0 13c0 1.105-0.895 2-2 2v0h-5l4 2v1h-14v-1l4-2zM2 2v11h16v-11h-16z"></path>
</symbol>

<symbol id="icon-mobile-devices" viewBox="0 0 20 20">
<path d="M17 6v-1h-2v-3h-12v14h5v4h3c-1.105 0-2-0.895-2-2v0-10c0-1.105 0.895-2 2-2v0h6zM11.25 20h-8.25c-1.105 0-2-0.895-2-2v0-16c0-1.1 0.9-2 2-2h12c1.105 0 2 0.895 2 2v0 4c1.105 0 2 0.895 2 2v0 10c0 1.105-0.895 2-2 2v0h-5.75zM11 8v8h6v-8h-6zM14 19c0.552 0 1-0.448 1-1s-0.448-1-1-1v0c-0.552 0-1 0.448-1 1s0.448 1 1 1v0z"></path>
</symbol>

<symbol id="icon-tablet" viewBox="0 0 20 20">
<path d="M2 2c0-1.1 0.9-2 2-2h12c1.105 0 2 0.895 2 2v0 16c0 1.105-0.895 2-2 2v0h-12c-1.105 0-2-0.895-2-2v0-16zM4 2v14h12v-14h-12zM10 19c0.552 0 1-0.448 1-1s-0.448-1-1-1v0c-0.552 0-1 0.448-1 1s0.448 1 1 1v0z"></path>
</symbol>

<symbol id="icon-watch" viewBox="0 0 20 20">
<path d="M11 9h2v2h-4v-4h2v2zM5.18 15.080c-1.352-1.276-2.193-3.080-2.193-5.080s0.841-3.804 2.19-5.077l0.003-0.003 0.82-4.92h8l0.82 4.92c1.352 1.276 2.193 3.080 2.193 5.080s-0.841 3.804-2.19 5.077l-0.003 0.003-0.82 4.92h-8l-0.82-4.92zM10 15c2.761 0 5-2.239 5-5s-2.239-5-5-5v0c-2.761 0-5 2.239-5 5s2.239 5 5 5v0z"></path>
</symbol>

<symbol id="icon-aperture" viewBox="0 0 32 32">
<path d="M21.172 13.98l5.691-9.664c-2.855-2.658-6.652-4.316-10.863-4.316-0.998 0-1.965 0.119-2.912 0.293l8.084 13.687zM19.953 20h11.48c0.333-1.285 0.567-2.609 0.567-4 0-3.873-1.43-7.377-3.723-10.145l-8.324 14.145zM16.5 10l-5.408-9.152c-4.5 1.459-8.139 4.798-9.904 9.152h15.312zM15.633 22l5.391 9.117c4.449-1.484 8.039-4.801 9.789-9.117h-15.18zM12.105 12h-11.539c-0.334 1.285-0.566 2.609-0.566 4 0 3.891 1.445 7.41 3.756 10.188l8.349-14.188zM10.918 17.961l-5.744 9.758c2.853 2.633 6.635 4.281 10.826 4.281 1.041 0 2.055-0.117 3.039-0.305l-8.121-13.734z"></path>
</symbol>

<symbol id="icon-headphones" viewBox="0 0 32 32">
<path d="M9 18h-2v14h2c0.55 0 1-0.45 1-1v-12c0-0.55-0.45-1-1-1z"></path>
<path d="M23 18c-0.55 0-1 0.45-1 1v12c0 0.55 0.45 1 1 1h2v-14h-2z"></path>
<path d="M32 16c0-8.837-7.163-16-16-16s-16 7.163-16 16c0 1.919 0.338 3.759 0.958 5.464-0.609 1.038-0.958 2.246-0.958 3.536 0 3.526 2.608 6.443 6 6.929v-13.857c-0.997 0.143-1.927 0.495-2.742 1.012-0.168-0.835-0.258-1.699-0.258-2.584 0-7.18 5.82-13 13-13s13 5.82 13 13c0 0.885-0.088 1.749-0.257 2.584-0.816-0.517-1.745-0.87-2.743-1.013v13.858c3.392-0.485 6-3.402 6-6.929 0-1.29-0.349-2.498-0.958-3.536 0.62-1.705 0.958-3.545 0.958-5.465z"></path>
</symbol>

<symbol id="icon-cart" viewBox="0 0 44 32">
<path  d="M11.103 5.209c-0.398-2.068-2.111-3.546-4.081-3.525h-4.873c-0.257 0-0.465 0.222-0.465 0.495 0 0.275 0.208 0.498 0.465 0.498h4.873c1.517 0.008 2.829 1.144 3.153 2.73l2.878 13.9c0.502 2.502 2.574 4.279 4.964 4.271h16.563c2.43 0.003 4.524-1.822 5.011-4.369l2.504-14.001c0.052-0.27-0.111-0.53-0.361-0.588-0.023-0.005-7.527-0.009-22.512-0.011-0.255 0-0.463 0.222-0.463 0.498 0 0.273 0.208 0.495 0.463 0.495h21.901l-2.415 13.407c-0.376 2.097-2.084 3.615-4.081 3.625h-16.563c-1.972 0.019-3.685-1.459-4.083-3.527l-2.878-13.9z"></path>
<path  d="M16 32c-1.396 0-2.526-1.128-2.526-2.525s1.13-2.528 2.526-2.528c1.393 0 2.526 1.131 2.526 2.528s-1.133 2.525-2.526 2.525z"></path>
<path  d="M38.737 29.475c0 1.397-1.132 2.525-2.525 2.525-1.396 0-2.528-1.128-2.528-2.525s1.132-2.528 2.528-2.528c1.393 0 2.525 1.131 2.525 2.528z"></path>
</symbol>

<symbol id="icon-home" viewBox="0 0 32 32">
<path d="M32 18.451l-16-12.42-16 12.42v-5.064l16-12.42 16 12.42zM28 18v12h-8v-8h-8v8h-8v-12l12-9z"></path>
</symbol>

<symbol id="icon-menu" viewBox="0 0 32 32">
<path d="M2 6h28v6h-28zM2 14h28v6h-28zM2 22h28v6h-28z"></path>
</symbol>

<symbol id="icon-shopping-cart" viewBox="0 0 24 24">
<path d="M20.756 5.345c-0.191-0.219-0.466-0.345-0.756-0.345h-13.819l-0.195-1.164c-0.080-0.482-0.497-0.836-0.986-0.836h-2.25c-0.553 0-1 0.447-1 1s0.447 1 1 1h1.403l1.86 11.164c0.008 0.045 0.031 0.082 0.045 0.124 0.016 0.053 0.029 0.103 0.054 0.151 0.032 0.066 0.075 0.122 0.12 0.179 0.031 0.039 0.059 0.078 0.095 0.112 0.058 0.054 0.125 0.092 0.193 0.13 0.038 0.021 0.071 0.049 0.112 0.065 0.116 0.047 0.238 0.075 0.367 0.075 0.001 0 11.001 0 11.001 0 0.553 0 1-0.447 1-1s-0.447-1-1-1h-10.153l-0.166-1h11.319c0.498 0 0.92-0.366 0.99-0.858l1-7c0.041-0.288-0.045-0.579-0.234-0.797zM18.847 7l-0.285 2h-3.562v-2h3.847zM14 7v2h-3v-2h3zM14 10v2h-3v-2h3zM10 7v2h-3c-0.053 0-0.101 0.015-0.148 0.030l-0.338-2.030h3.486zM7.014 10h2.986v2h-2.653l-0.333-2zM15 12v-2h3.418l-0.285 2h-3.133z"></path>
<path d="M10 19.5c0 0.828-0.672 1.5-1.5 1.5s-1.5-0.672-1.5-1.5c0-0.828 0.672-1.5 1.5-1.5s1.5 0.672 1.5 1.5z"></path>
<path d="M19 19.5c0 0.828-0.672 1.5-1.5 1.5s-1.5-0.672-1.5-1.5c0-0.828 0.672-1.5 1.5-1.5s1.5 0.672 1.5 1.5z"></path>
</symbol>

<symbol id="icon-bin" viewBox="0 0 32 32">
<path d="M4 10v20c0 1.1 0.9 2 2 2h18c1.1 0 2-0.9 2-2v-20h-22zM10 28h-2v-14h2v14zM14 28h-2v-14h2v14zM18 28h-2v-14h2v14zM22 28h-2v-14h2v14z"></path>
<path d="M26.5 4h-6.5v-2.5c0-0.825-0.675-1.5-1.5-1.5h-7c-0.825 0-1.5 0.675-1.5 1.5v2.5h-6.5c-0.825 0-1.5 0.675-1.5 1.5v2.5h26v-2.5c0-0.825-0.675-1.5-1.5-1.5zM18 4h-6v-1.975h6v1.975z"></path>
</symbol>

<symbol id="icon-pencil" viewBox="0 0 32 32">
<path d="M27 0c2.761 0 5 2.239 5 5 0 1.126-0.372 2.164-1 3l-2 2-7-7 2-2c0.836-0.628 1.874-1 3-1zM2 23l-2 9 9-2 18.5-18.5-7-7-18.5 18.5zM22.362 11.362l-14 14-1.724-1.724 14-14 1.724 1.724z"></path>
</symbol>

</defs>
</svg>
